<svg xmlns="http://www.w3.org/2000/svg" viewBox="0 0 353.59 105.02"><defs><style>.cls-1{fill:#3ab0ff;}.cls-2{fill:#2f8fcf;}.cls-3{fill:#1a1a1a;}.cls-4{fill:#fff;}</style></defs><title>logo</title><g id="Слой_2" data-name="Слой 2"><g id="logo"><circle class="cls-1" cx="294.88" cy="65.64" r="37.55"/><path class="cls-2" d="M264.84,65.64a30,30,0,1,0,30-30A30,30,0,0,0,264.84,65.64Z"/><path class="cls-1" d="M272.53,65.48A22.53,22.53,0,1,0,295.06,43,22.52,22.52,0,0,0,272.53,65.48Zm7.51,0a15,15,0,1,1,15,15A15,15,0,0,1,280,65.48Z"/><circle class="cls-1" cx="181.19" cy="60.71" r="42.62" transform="translate(10.14 145.9) rotate(-45)"/><path class="cls-2" d="M181.19,26.61a34.1,34.1,0,1,0,34.09,34.1A34.1,34.1,0,0,0,181.19,26.61Z"/><path class="cls-1" d="M181,35a25.57,25.57,0,1,0,25.58,25.57A25.57,25.57,0,0,0,181,35Zm0,42.62a17,17,0,1,1,17.05-17A17,17,0,0,1,181,77.58Z"/><circle class="cls-1" cx="242.19" cy="56.71" r="42.62" transform="translate(30.84 187.86) rotate(-45)"/><path class="cls-2" d="M208.09,56.71a34.1,34.1,0,1,0,34.1-34.1A34.1,34.1,0,0,0,208.09,56.71Z"/><path class="cls-1" d="M216.82,56.53A25.57,25.57,0,1,0,242.39,31,25.57,25.57,0,0,0,216.82,56.53Zm8.52,0a17,17,0,1,1,17,17A17,17,0,0,1,225.34,56.53Z"/><circle class="cls-1" cx="64.12" cy="55.64" r="37.55"/><path class="cls-2" d="M64.12,25.6a30,30,0,1,0,30,30A30,30,0,0,0,64.12,25.6Z"/><path class="cls-1" d="M63.94,33A22.53,22.53,0,1,0,86.47,55.48,22.53,22.53,0,0,0,63.94,33Zm0,37.55a15,15,0,1,1,15-15A15,15,0,0,1,63.94,70.5Z"/><circle class="cls-1" cx="120.19" cy="47.71" r="42.62" transform="translate(1.47 98.96) rotate(-45)"/><path class="cls-2" d="M120.19,13.61a34.1,34.1,0,1,0,34.09,34.1A34.1,34.1,0,0,0,120.19,13.61Z"/><path class="cls-1" d="M120,22a25.57,25.57,0,1,0,25.58,25.57A25.57,25.57,0,0,0,120,22Zm0,42.62a17,17,0,1,1,17-17A17,17,0,0,1,120,64.58Z"/><path class="cls-3" d="M349.91,74.94a18.17,18.17,0,0,0-2.72-2.49l6.28-14.94-3.72-2.2a29.13,29.13,0,0,0-8.67-3.24,46.78,46.78,0,0,0-6.76-.94,44.58,44.58,0,0,0-55.69-25.06,49.6,49.6,0,0,0-70.52-4.43,48.22,48.22,0,0,0-47.61-3.56,49.63,49.63,0,0,0-76.24-.46,44.57,44.57,0,0,0-59,22.18,33.17,33.17,0,0,0-8.75,3.29A31.23,31.23,0,0,0,4.39,54.94,33.44,33.44,0,0,0,0,72,33.43,33.43,0,0,0,4.39,89,31.23,31.23,0,0,0,16.51,100.8,37.11,37.11,0,0,0,32.41,105l1.18,0c4.47.06,66.37,0,296.84-.37,2.38,0,13.87-.4,19.91-8.8a17.85,17.85,0,0,0,2.31-4.38,17,17,0,0,0,.94-5.67C353.59,81.31,352.35,77.67,349.91,74.94Zm-55-46.85a37.54,37.54,0,0,1,34.6,23,30.85,30.85,0,0,0-10.6,2.17,22.3,22.3,0,0,0-5.72,3.39h-.38V51h-5a27.84,27.84,0,0,0-9.23,1.46v-.76h-8.2A49.4,49.4,0,0,0,282,30.36,37.55,37.55,0,0,1,294.88,28.09Zm-85.13,1a41.91,41.91,0,0,1,3.38-3.54,42.61,42.61,0,0,1,60.62,2.53,43.69,43.69,0,0,1,3.5,4.41,42.42,42.42,0,0,1,7.27,19.24h-10v4.91h-2.68a24,24,0,0,0-3.65-2.41A27.83,27.83,0,0,0,255,51a29,29,0,0,0-9.22,1.45l.68-.75H216.39l-4.78,4.91h-2.53V36.13h-4.2A42.49,42.49,0,0,1,209.75,29.08Zm-28.56-11a42.38,42.38,0,0,1,23.41,7,50.05,50.05,0,0,0-7.67,11H185.09V55.62c-.37-.27-.74-.53-1.13-.77a26,26,0,0,0-12.09-3.74c0-.47,0-.93,0-1.4A49.35,49.35,0,0,0,163.41,22,42.44,42.44,0,0,1,181.19,18.09ZM84.64,24.2A42.61,42.61,0,0,1,154,21.8a44,44,0,0,1,2.73,4,42.44,42.44,0,0,1,6.06,21.91c0,1.36-.08,2.71-.21,4a28.64,28.64,0,0,0-7.27,2.61,26.94,26.94,0,0,0-3.56,2.27H139.51a24.62,24.62,0,0,0-3.66-2.41,29.14,29.14,0,0,0-27,.24,26.23,26.23,0,0,0-3.28,2.17H96.27a21,21,0,0,0-15-5.61,24.55,24.55,0,0,0-3.56.26c-.1-1.18-.16-2.37-.16-3.57A42.39,42.39,0,0,1,84.64,24.2ZM64.12,18.09a37.44,37.44,0,0,1,16.79,4,49.3,49.3,0,0,0-6.75,14.83v-.75h-24v6.66c-.52-.28-1.06-.56-1.59-.81a34.09,34.09,0,0,0-15-3.09c-1.07,0-2.12,0-3.15.14A37.53,37.53,0,0,1,64.12,18.09Z"/><path class="cls-4" d="M18.9,96.45a26.24,26.24,0,0,1-10.22-10A28.36,28.36,0,0,1,5,72,28.4,28.4,0,0,1,8.68,57.43a26.24,26.24,0,0,1,10.22-10,29.82,29.82,0,0,1,14.69-3.59,29.16,29.16,0,0,1,12.86,2.62,27.54,27.54,0,0,1,5.71,3.59L46.6,62.84q-5.06-6.33-12.27-6.33a14.7,14.7,0,0,0-7.55,1.93,13.21,13.21,0,0,0-5.13,5.44,18.78,18.78,0,0,0,0,16.13,13.21,13.21,0,0,0,5.13,5.44,14.7,14.7,0,0,0,7.55,1.93q7.22,0,12.27-6.33l5.55,12.8a27.76,27.76,0,0,1-5.7,3.57A29.16,29.16,0,0,1,33.59,100,29.82,29.82,0,0,1,18.9,96.45Z"/><path class="cls-4" d="M93.33,60.66q4.58,4.68,4.57,14.12V99H83.81V77.2q0-8.65-6.6-8.66A7.33,7.33,0,0,0,71.39,71q-2.19,2.49-2.19,7.49V99H55.11V41.09H69.2v19.5a15.3,15.3,0,0,1,5.41-3.44A18.84,18.84,0,0,1,81.29,56Q88.78,56,93.33,60.66Z"/><path class="cls-4" d="M143.91,81.57H114.67a8.57,8.57,0,0,0,3.45,5,11.11,11.11,0,0,0,6.42,1.75,13.34,13.34,0,0,0,5-.85,14.94,14.94,0,0,0,4.27-2.81l7.42,8.11q-5.87,6.87-17.15,6.86a26.26,26.26,0,0,1-12.39-2.8,20.51,20.51,0,0,1-8.28-7.8,23.33,23.33,0,0,1-.07-22.51,20.39,20.39,0,0,1,7.9-7.76,24.2,24.2,0,0,1,22.27-.19,19.32,19.32,0,0,1,7.76,7.56,23.18,23.18,0,0,1,2.85,11.74C144.13,78,144.06,79.23,143.91,81.57ZM117.23,68.46a8.9,8.9,0,0,0-2.78,5.31h16.47a8.9,8.9,0,0,0-2.78-5.31,8.61,8.61,0,0,0-10.91,0Z"/><path class="cls-4" d="M157.65,96.86a20.52,20.52,0,0,1-8.19-7.8,23.31,23.31,0,0,1,0-22.59,20.27,20.27,0,0,1,8.19-7.72A25.25,25.25,0,0,1,169.57,56a21.93,21.93,0,0,1,11.78,3.08,16.89,16.89,0,0,1,7,8.55L177.5,73.46q-2.75-5.7-8-5.7a8.23,8.23,0,0,0-6.26,2.65,10.31,10.31,0,0,0-2.48,7.34,10.56,10.56,0,0,0,2.48,7.45,8.16,8.16,0,0,0,6.26,2.69q5.25,0,8-5.7L188.38,88a16.83,16.83,0,0,1-7,8.54,21.84,21.84,0,0,1-11.78,3.08A24.91,24.91,0,0,1,157.65,96.86Z"/><path class="cls-4" d="M208.26,84.14l-4.14,4.45V99H190.06V41.09h14.06V71.43l14.36-14.74h16.65L218.48,74.78,236.54,99h-17Z"/><path class="cls-4" d="M276.28,81.57H247a8.63,8.63,0,0,0,3.46,5,11.07,11.07,0,0,0,6.42,1.75,13.34,13.34,0,0,0,5-.85,14.77,14.77,0,0,0,4.26-2.81l7.42,8.11q-5.85,6.87-17.14,6.86a26.33,26.33,0,0,1-12.4-2.8,20.42,20.42,0,0,1-8.27-7.8,23.33,23.33,0,0,1-.07-22.51,20.32,20.32,0,0,1,7.9-7.76,24.2,24.2,0,0,1,22.27-.19,19.3,19.3,0,0,1,7.75,7.56A23.08,23.08,0,0,1,276.5,77.9C276.5,78,276.43,79.23,276.28,81.57ZM249.6,68.46a8.91,8.91,0,0,0-2.79,5.31h16.48a9,9,0,0,0-2.78-5.31,8.61,8.61,0,0,0-10.91,0Z"/><path class="cls-4" d="M299.51,57.43A22.2,22.2,0,0,1,307.82,56V69.32a31.66,31.66,0,0,0-3.35-.23A10.36,10.36,0,0,0,297,71.66c-1.8,1.72-2.69,4.34-2.69,7.88V99H279.51V56.69h14.12v5.07A13.7,13.7,0,0,1,299.51,57.43Z"/><path class="cls-4" d="M318.81,98.46A25.64,25.64,0,0,1,311,95.3l4.23-10.14A23.29,23.29,0,0,0,321.71,88a27.48,27.48,0,0,0,7.49,1.06,11.38,11.38,0,0,0,4.86-.75,2.31,2.31,0,0,0,1.44-2.14c0-.94-.58-1.6-1.74-2a34.17,34.17,0,0,0-5.53-1.13A52.19,52.19,0,0,1,320,81.41a12.57,12.57,0,0,1-5.83-3.74q-2.44-2.73-2.44-7.65a11.9,11.9,0,0,1,2.3-7.21,15.23,15.23,0,0,1,6.71-5A27.5,27.5,0,0,1,331.35,56a41,41,0,0,1,8.68.94,24.22,24.22,0,0,1,7.19,2.65L343,69.63a22.52,22.52,0,0,0-11.57-3.12,11.08,11.08,0,0,0-4.89.82A2.44,2.44,0,0,0,325,69.48a2.12,2.12,0,0,0,1.71,2.06,36.35,36.35,0,0,0,5.63,1.21,59.19,59.19,0,0,1,8.24,1.8,12.51,12.51,0,0,1,5.67,3.7q2.41,2.7,2.41,7.53a11.87,11.87,0,0,1-2.3,7.14,15,15,0,0,1-6.79,5,29,29,0,0,1-10.79,1.79A41.66,41.66,0,0,1,318.81,98.46Z"/></g></g></svg>