<svg xmlns="http://www.w3.org/2000/svg" viewBox="0 0 141.73 141.73"><defs><style>.cls-1{fill:#3ab0ff;}.cls-2{fill:#2f8fcf;}</style></defs><title>piece_b</title><g id="Слой_2" data-name="Слой 2"><g id="piece_b"><path class="cls-1" d="M70.87,0a70.87,70.87,0,1,0,70.86,70.87A70.87,70.87,0,0,0,70.87,0Z"/><path class="cls-2" d="M70.87,14.17a56.7,56.7,0,1,0,56.69,56.7A56.71,56.71,0,0,0,70.87,14.17Z"/><path class="cls-1" d="M70.53,28.05a42.52,42.52,0,1,0,42.52,42.52A42.52,42.52,0,0,0,70.53,28.05Zm0,70.87A28.35,28.35,0,1,1,98.88,70.57,28.35,28.35,0,0,1,70.53,98.92Z"/></g></g></svg>