<svg xmlns="http://www.w3.org/2000/svg" viewBox="0 0 141.73 141.73"><defs><style>.cls-1{fill:#f87474;}.cls-2{fill:#ca5f5f;}</style></defs><title>queen_r</title><g id="Слой_2" data-name="Слой 2"><g id="queen_r"><path class="cls-1" d="M70.87,0a70.87,70.87,0,1,0,70.86,70.87A70.87,70.87,0,0,0,70.87,0Z"/><path class="cls-2" d="M70.87,14.17a56.7,56.7,0,1,0,56.69,56.7A56.71,56.71,0,0,0,70.87,14.17Zm37.77,48.07q-2.2,15.32-4.42,30.63H37.51q-2.2-15.32-4.42-30.63a4.92,4.92,0,1,1,5.21-2.81l15.27,15.1Q60.85,60.67,68.1,46.81a4.95,4.95,0,1,1,5.53,0L88.16,74.53l15.27-15.1a4.85,4.85,0,0,1-.45-2,4.95,4.95,0,1,1,5.66,4.82Z"/></g></g></svg>