<svg xmlns="http://www.w3.org/2000/svg" viewBox="0 0 141.74 141.74"><defs><style>.cls-1{fill:#f87474;}.cls-2{fill:#ca5f5f;}.cls-3{fill:#3ab0ff;}.cls-4{fill:#2f8fcf;}.cls-5{fill:#fff;}</style></defs><title>random_1</title><g id="Слой_2" data-name="Слой 2"><g id="Слой_9" data-name="Слой 9"><path class="cls-1" d="M126,115.41A70.87,70.87,0,1,0,26.32,126,70.86,70.86,0,0,0,126,115.41Z"/><path class="cls-2" d="M115,106.5A56.69,56.69,0,1,0,35.23,115,56.68,56.68,0,0,0,115,106.5Z"/><path class="cls-1" d="M104.38,97.52a42.52,42.52,0,1,0-59.8,6.34A42.53,42.53,0,0,0,104.38,97.52ZM49.26,53a28.35,28.35,0,1,1,4.23,39.87A28.36,28.36,0,0,1,49.26,53Z"/><path class="cls-3" d="M126,115.41a70.86,70.86,0,0,0-10.57-99.66L26.32,126A70.86,70.86,0,0,0,126,115.41Z"/><path class="cls-4" d="M115,106.5a56.68,56.68,0,0,0-8.46-79.72L35.23,115A56.69,56.69,0,0,0,115,106.5Z"/><path class="cls-3" d="M88.89,48.57l.24.18A28.35,28.35,0,0,1,53.49,92.84l-.22-.19-8.91,11,.22.19A42.52,42.52,0,0,0,98,37.72c-.08-.06-.16-.11-.24-.18Z"/><path class="cls-5" d="M65.07,76.1a45.78,45.78,0,0,1,6.23-7.65,39.46,39.46,0,0,0,4.41-5.15,8.33,8.33,0,0,0,1.4-4.74,7.29,7.29,0,0,0-2.68-6A10.9,10.9,0,0,0,67.3,50.4a14.43,14.43,0,0,0-7.59,2A16.86,16.86,0,0,0,54.12,58l-11-7.25A26.67,26.67,0,0,1,53.44,40.61,31.52,31.52,0,0,1,68.84,37q10.45,0,16.77,5t6.32,13.87a20.2,20.2,0,0,1-1.23,7.34,19.92,19.92,0,0,1-3,5.35,67.38,67.38,0,0,1-4.59,5.05,40.18,40.18,0,0,0-4.9,5.66,9.64,9.64,0,0,0-1.55,5.56H62.94A16.49,16.49,0,0,1,65.07,76.1Zm-1.45,31.66a9.3,9.3,0,0,1-2.5-6.57,9.09,9.09,0,0,1,2.45-6.48,8.86,8.86,0,0,1,12.54,0,9.05,9.05,0,0,1,2.46,6.48,9.35,9.35,0,0,1-2.5,6.57,8.5,8.5,0,0,1-12.45,0Z"/></g></g></svg>